<svg 
 xmlns="http://www.w3.org/2000/svg"
 xmlns:xlink="http://www.w3.org/1999/xlink"
 width="21px" height="19px">
<path fill-rule="evenodd"  fill="rgb(0, 0, 0)"
 d="M17.643,5.850 L17.643,8.350 L15.985,8.350 L15.985,5.850 L13.502,5.850 L13.502,4.174 L15.985,4.174 L15.985,1.634 L17.643,1.634 L17.643,4.174 L20.125,4.174 L20.125,5.850 L17.643,5.850 ZM9.350,1.673 C10.535,1.673 11.062,3.393 11.062,4.817 C11.062,6.012 10.507,6.914 9.575,7.645 C8.666,8.360 8.494,8.658 8.494,9.264 C8.494,9.782 9.468,10.662 9.976,11.026 C11.465,12.083 11.817,13.064 11.817,14.705 C11.817,16.748 9.976,18.340 6.411,18.340 C3.283,18.340 0.203,17.191 0.203,15.147 C0.203,13.072 3.051,11.385 6.178,11.385 C6.519,11.385 6.832,11.381 7.155,11.381 C6.728,10.960 6.388,10.459 6.388,9.829 C6.388,9.454 6.507,9.112 6.675,8.792 C6.504,8.805 6.330,8.850 6.152,8.850 C3.582,8.850 1.862,7.098 1.862,4.821 C1.862,2.595 4.238,0.841 6.764,0.841 C8.172,0.841 12.397,0.841 12.397,0.841 L11.136,1.673 L9.350,1.673 ZM6.774,11.907 C4.612,11.882 2.676,13.231 2.676,14.848 C2.676,16.500 4.238,17.434 6.399,17.434 C9.439,17.434 10.291,16.585 10.291,14.933 C10.291,14.734 10.266,14.539 10.222,14.353 C9.985,13.416 9.350,12.952 8.176,12.131 C7.748,11.994 7.279,11.913 6.774,11.907 ZM9.141,4.800 C8.890,2.889 7.510,1.351 6.059,1.307 C4.609,1.263 3.636,2.729 3.887,4.643 C4.137,6.559 5.515,8.147 6.968,8.189 C8.418,8.233 9.391,6.717 9.141,4.800 Z"/>
</svg>