<svg 
 xmlns="http://www.w3.org/2000/svg"
 xmlns:xlink="http://www.w3.org/1999/xlink"
 width="21px" height="20px">
<path fill-rule="evenodd"  fill="rgb(0, 0, 0)"
 d="M20.301,19.992 L16.652,19.992 C16.653,19.913 16.658,19.837 16.658,19.760 C16.658,10.985 9.394,3.741 0.591,3.741 C0.541,3.741 0.489,3.745 0.438,3.745 L0.438,0.029 C0.489,0.029 0.541,0.025 0.591,0.025 C11.435,0.025 20.307,8.950 20.307,19.760 C20.307,19.837 20.303,19.913 20.301,19.992 ZM3.338,14.180 C4.940,14.180 6.237,15.476 6.237,17.071 C6.237,18.670 4.940,19.962 3.338,19.962 C1.737,19.962 0.438,18.670 0.438,17.071 C0.438,15.476 1.737,14.180 3.338,14.180 ZM0.591,10.378 C0.541,10.378 0.489,10.385 0.438,10.386 L0.438,6.697 C0.489,6.696 0.541,6.688 0.591,6.688 C7.735,6.688 13.677,12.637 13.677,19.760 C13.677,19.839 13.666,19.913 13.664,19.992 L9.963,19.992 C9.965,19.913 9.975,19.839 9.975,19.760 C9.975,14.673 5.694,10.378 0.591,10.378 Z"/>
</svg>