<svg 
 xmlns="http://www.w3.org/2000/svg"
 xmlns:xlink="http://www.w3.org/1999/xlink"
 width="26px" height="24px">
<defs>
<filter filterUnits="userSpaceOnUse" id="Filter_0" x="0px" y="0px" width="26px" height="24px"  >
    <feOffset in="SourceAlpha" dx="0" dy="3" />
    <feGaussianBlur result="blurOut" stdDeviation="1.732" />
    <feFlood flood-color="rgb(0, 0, 0)" result="floodOut" />
    <feComposite operator="atop" in="floodOut" in2="blurOut" />
    <feComponentTransfer><feFuncA type="linear" slope="0.25"/></feComponentTransfer>
    <feMerge>
    <feMergeNode/>
    <feMergeNode in="SourceGraphic"/>
  </feMerge>
</filter>

</defs>
<g filter="url(#Filter_0)">
<path fill-rule="evenodd"  fill="rgb(231, 76, 60)"
 d="M22.542,3.058 C22.207,3.244 21.201,3.616 20.265,3.708 C20.866,3.382 21.756,2.316 21.975,1.467 C21.397,1.840 20.070,2.381 19.415,2.381 C19.415,2.381 19.415,2.381 19.415,2.382 C18.668,1.599 17.616,0.977 16.449,0.977 C14.183,0.977 12.526,2.954 12.526,5.230 C12.526,5.546 12.563,5.855 12.630,6.151 L12.629,6.151 C9.554,6.069 6.011,4.364 3.986,1.715 C2.742,3.879 3.819,6.442 5.231,7.320 C4.748,7.356 3.857,7.265 3.439,6.853 C3.411,8.290 4.098,10.193 6.605,10.884 C6.123,11.144 5.268,11.070 4.896,11.013 C5.026,12.227 6.717,13.813 8.565,13.813 C7.906,14.577 5.428,15.966 2.646,15.525 C4.535,16.679 6.737,17.347 9.067,17.347 C15.689,17.347 21.116,11.958 20.839,5.305 C20.839,5.298 20.839,5.291 20.838,5.281 C20.839,5.265 20.839,5.248 20.839,5.230 C20.839,5.211 20.838,5.190 20.837,5.170 C21.440,4.755 21.964,4.022 22.542,3.058 Z"/>
</g>
</svg>