<svg 
 xmlns="http://www.w3.org/2000/svg"
 xmlns:xlink="http://www.w3.org/1999/xlink"
 width="21px" height="19px">
<path fill-rule="evenodd"  fill="rgb(0, 0, 0)"
 d="M0.287,5.482 C2.037,4.107 4.528,1.502 6.469,1.502 C8.409,1.502 8.884,3.340 9.151,5.386 C9.418,7.431 10.178,11.902 11.205,11.902 C12.233,11.902 14.572,7.945 14.439,6.417 C14.306,4.890 12.613,5.119 11.681,5.557 C12.536,2.500 14.516,0.695 17.044,0.695 C19.574,0.695 20.182,2.636 20.182,4.793 C20.182,8.080 13.411,18.151 9.323,18.151 C6.792,18.151 6.164,14.481 5.652,12.666 C5.139,10.853 4.131,6.092 2.950,5.788 C2.494,5.711 1.200,6.722 1.200,6.722 L0.287,5.482 Z"/>
</svg>