<svg 
 xmlns="http://www.w3.org/2000/svg"
 xmlns:xlink="http://www.w3.org/1999/xlink"
 width="22px" height="31px">
<path fill-rule="evenodd"  fill="rgb(231, 76, 60)"
 d="M21.890,17.296 L19.381,13.522 C19.261,13.342 19.063,13.235 18.850,13.235 C18.637,13.235 18.438,13.342 18.319,13.522 L15.810,17.296 C15.677,17.497 15.663,17.756 15.774,17.970 C15.885,18.184 16.103,18.318 16.341,18.318 L17.579,18.318 C17.045,20.565 14.831,22.366 12.496,22.931 L12.496,8.466 L14.491,8.466 C15.042,8.466 15.488,8.010 15.488,7.448 C15.488,6.885 15.042,6.430 14.491,6.430 L13.463,6.430 C14.182,5.751 14.639,4.789 14.639,3.712 C14.639,1.665 13.006,-0.002 11.000,-0.002 C8.993,-0.002 7.360,1.665 7.360,3.712 C7.360,4.789 7.818,5.751 8.536,6.430 L7.509,6.430 C6.958,6.430 6.512,6.885 6.512,7.448 C6.512,8.010 6.958,8.466 7.509,8.466 L9.504,8.466 L9.504,22.931 C7.169,22.366 4.954,20.566 4.420,18.318 L5.659,18.318 C5.896,18.318 6.114,18.184 6.226,17.970 C6.337,17.756 6.323,17.497 6.189,17.296 L3.680,13.522 C3.561,13.342 3.362,13.235 3.150,13.235 C2.937,13.235 2.738,13.342 2.619,13.522 L0.110,17.296 C-0.024,17.497 -0.037,17.756 0.074,17.970 C0.185,18.184 0.403,18.318 0.641,18.318 L1.990,18.318 C2.493,21.813 5.445,25.378 8.770,26.556 L8.521,26.868 C8.344,27.089 8.328,27.403 8.483,27.642 L10.464,30.705 C10.583,30.888 10.784,30.999 11.000,30.999 C11.216,30.999 11.417,30.888 11.535,30.705 L13.516,27.642 C13.671,27.403 13.656,27.089 13.478,26.868 L13.230,26.556 C16.554,25.378 19.507,21.813 20.009,18.318 L21.359,18.318 C21.597,18.318 21.815,18.184 21.926,17.970 C22.037,17.756 22.023,17.497 21.890,17.296 ZM11.000,2.034 C11.907,2.034 12.645,2.787 12.645,3.712 C12.645,4.639 11.907,5.392 11.000,5.392 C10.093,5.392 9.355,4.639 9.355,3.712 C9.355,2.787 10.093,2.034 11.000,2.034 Z"/>
</svg>