<svg xmlns="http://www.w3.org/2000/svg" width="21" height="19"><path fill-rule="evenodd" d="M17.643 5.85v2.5h-1.658v-2.5h-2.483V4.174h2.483v-2.54h1.658v2.54h2.482V5.85h-2.482zM9.35 1.673c1.185 0 1.712 1.72 1.712 3.144 0 1.195-.555 2.097-1.487 2.828-.909.715-1.081 1.013-1.081 1.619 0 .518.974 1.398 1.482 1.762 1.489 1.057 1.841 2.038 1.841 3.679 0 2.043-1.841 3.635-5.406 3.635-3.128 0-6.208-1.149-6.208-3.193 0-2.075 2.848-3.762 5.975-3.762.341 0 .654-.004.977-.004-.427-.421-.767-.922-.767-1.552 0-.375.119-.717.287-1.037-.171.013-.345.058-.523.058-2.57 0-4.29-1.752-4.29-4.029 0-2.226 2.376-3.98 4.902-3.98h5.633l-1.261.832H9.35zM6.774 11.907c-2.162-.025-4.098 1.324-4.098 2.941 0 1.652 1.562 2.586 3.723 2.586 3.04 0 3.892-.849 3.892-2.501 0-.199-.025-.394-.069-.58-.237-.937-.872-1.401-2.046-2.222a4.77 4.77 0 0 0-1.402-.224zM9.141 4.8C8.89 2.889 7.51 1.351 6.059 1.307c-1.45-.044-2.423 1.422-2.172 3.336.25 1.916 1.628 3.504 3.081 3.546 1.45.044 2.423-1.472 2.173-3.389z"/></svg>