<svg xmlns="http://www.w3.org/2000/svg" width="21" height="20"><path fill-rule="evenodd" d="M20.301 19.992h-3.649c.001-.079.006-.155.006-.232 0-8.775-7.264-16.019-16.067-16.019-.05 0-.102.004-.153.004V.029C.489.029.541.025.591.025c10.844 0 19.716 8.925 19.716 19.735 0 .077-.004.153-.006.232zM3.338 14.18a2.895 2.895 0 0 1 2.899 2.891 2.893 2.893 0 0 1-2.899 2.891 2.894 2.894 0 0 1-2.9-2.891 2.897 2.897 0 0 1 2.9-2.891zM.591 10.378c-.05 0-.102.007-.153.008V6.697c.051-.001.103-.009.153-.009 7.144 0 13.086 5.949 13.086 13.072 0 .079-.011.153-.013.232H9.963c.002-.079.012-.153.012-.232 0-5.087-4.281-9.382-9.384-9.382z"/></svg>