<svg xmlns="http://www.w3.org/2000/svg" width="26" height="24"><defs><filter filterUnits="userSpaceOnUse" id="a" x="0" y="0" width="26" height="24"><feOffset in="SourceAlpha" dy="3"/><feGaussianBlur result="blurOut" stdDeviation="1.732"/><feFlood flood-color="#000" result="floodOut"/><feComposite operator="atop" in="floodOut" in2="blurOut"/><feComponentTransfer><feFuncA type="linear" slope=".25"/></feComponentTransfer><feMerge><feMergeNode/><feMergeNode in="SourceGraphic"/></feMerge></filter></defs><path fill-rule="evenodd" fill="#E74C3C" d="M22.542 3.058c-.335.186-1.341.558-2.277.65.601-.326 1.491-1.392 1.71-2.241-.578.373-1.905.914-2.56.914v.001c-.747-.783-1.799-1.405-2.966-1.405-2.266 0-3.923 1.977-3.923 4.253 0 .316.037.625.104.921h-.001c-3.075-.082-6.618-1.787-8.643-4.436-1.244 2.164-.167 4.727 1.245 5.605-.483.036-1.374-.055-1.792-.467-.028 1.437.659 3.34 3.166 4.031-.482.26-1.337.186-1.709.129.13 1.214 1.821 2.8 3.669 2.8-.659.764-3.137 2.153-5.919 1.712a12.296 12.296 0 0 0 6.421 1.822c6.622 0 12.049-5.389 11.772-12.042l-.001-.024.001-.051-.002-.06c.603-.415 1.127-1.148 1.705-2.112z" filter="url(#a)"/></svg>